:version 1.10
:name ASF
:units
  mass 1
  length 1
  angle deg
:documentation
  ASF file generated by Kaydara
:root
  axis xyz
  order  tx ty tz rx ry rz
  position 0 0 0
  orientation 0 0 0
:bonedata
  begin
    id 1
    name RightUpLegDummy
    direction -1 2.30186e-007 8.31532e-007
    length 4.46685
    axis 0 0 0 xyz
  end
  begin
    id 2
    name RightUpLeg
    direction -2.30187e-007 -1 1.24343e-010
    length 16.4045
    axis -3.49089 -0.000906625 0.000286804 xyz
    dof rx ry rz
  end
  begin
    id 3
    name RightLeg
    direction -2.30181e-007 -1 -4.17157e-009
    length 17.5097
    axis 3.68512 0.0193738 -0.131023 xyz
    dof rx ry rz
  end
  begin
    id 4
    name RightFoot
    direction 8.31421e-007 -4.51202e-011 1
    length 6.49508
    axis 4.81691e-005 -0.120479 -0.188788 xyz
    dof rx ry rz
  end
  begin
    id 5
    name RightToes
    direction 0.00124746 -0.014064 0.9999
    length 3.85082
    axis 0.000481921 0.542163 -0.142578 xyz
    dof rx ry rz
  end
  begin
    id 6
    name SpineDummy
    direction 0.0717043 0.9409 -0.331007
    length 10.0032
    axis 0 0 0 xyz
  end
  begin
    id 7
    name Spine
    direction 2.30186e-007 1 4.58806e-011
    length 9.84055
    axis -0.001389 0.000121418 2.40972e-006 xyz
    dof rx ry rz
  end
  begin
    id 8
    name Spine1
    direction 0 0 0
    length 0
    axis -0.001389 0.000121451 1.30017e-006 xyz
    dof rx ry rz
  end
  begin
    id 9
    name HEadDummy
    direction -0.00347485 0.950688 -0.310128
    length 8.00997
    axis -0.001389 0.000121451 1.30017e-006 xyz
  end
  begin
    id 10
    name HEad
    direction -0.0222688 0.980941 0.193023
    length 5.12695
    axis -0.001389 0.000121451 1.30017e-006 xyz
    dof rx ry rz
  end
  begin
    id 11
    name LeftShoulder1Dummy
    direction 0.988871 0.146793 -0.0242004
    length 3.5792
    axis -0.001389 0.000121451 1.30017e-006 xyz
  end
  begin
    id 12
    name LeftShoulder1
    direction 0.993832 0.108932 0.020779
    length 4.16823
    axis -0.001389 0.000121451 1.30017e-006 xyz
    dof rx ry rz
  end
  begin
    id 13
    name LeftArm
    direction 1 3.44807e-006 -8.31404e-007
    length 9.91437
    axis -23.1894 0.134784 0.967509 xyz
    dof rx ry rz
  end
  begin
    id 14
    name LeftForeArm
    direction 1 3.44842e-006 -8.31581e-007
    length 9.08575
    axis -9.91835 -0.06569 -0.177793 xyz
    dof rx ry rz
  end
  begin
    id 15
    name LeftHand
    direction 0.992938 -0.0411636 0.11126
    length 5.32135
    axis -0.00960232 -0.00340091 0.185173 xyz
    dof rx ry rz
  end
  begin
    id 16
    name RightShoulderDummy
    direction -0.988871 0.146793 -0.0241962
    length 3.5792
    axis -0.001389 0.000121451 1.30017e-006 xyz
  end
  begin
    id 17
    name RightShoulder
    direction -0.993832 0.108933 0.0207785
    length 4.16823
    axis 0.215806 0.000203643 -0.0068026 xyz
    dof rx ry rz
  end
  begin
    id 18
    name RightArm
    direction -1 3.90912e-006 8.31284e-007
    length 9.91437
    axis -23.2009 -0.134239 -0.964101 xyz
    dof rx ry rz
  end
  begin
    id 19
    name RightForeArm
    direction -1 3.90882e-006 8.31502e-007
    length 9.08575
    axis -9.92322 0.0658061 0.178867 xyz
    dof rx ry rz
  end
  begin
    id 20
    name RightHand
    direction -0.992843 -0.0414603 0.112003
    length 5.28593
    axis -0.00960638 0.00330671 -0.185228 xyz
    dof rx ry rz
  end
  begin
    id 21
    name LeftUpLegDummy
    direction 1 -2.30186e-007 -8.31532e-007
    length 4.46685
    axis 0 0 0 xyz
  end
  begin
    id 22
    name LeftUpLeg
    direction -2.30187e-007 -1 6.00931e-010
    length 16.4045
    axis -3.48766 0.00143442 -0.000524262 xyz
    dof rx ry rz
  end
  begin
    id 23
    name LeftLeg
    direction -2.30187e-007 -1 1.6669e-009
    length 17.5097
    axis 3.68178 -0.00654042 -0.000285133 xyz
    dof rx ry rz
  end
  begin
    id 24
    name LeftFoot
    direction 8.31532e-007 -4.54478e-011 1
    length 6.49508
    axis 1.87233e-006 4.66016e-005 -8.6538e-006 xyz
    dof rx ry rz
  end
  begin
    id 25
    name LeftToes
    direction 0.00818058 -0.00485161 0.999955
    length 3.85048
    axis 1.06247e-005 4.65869e-005 -8.65513e-006 xyz
    dof rx ry rz
  end
:hierarchy
  begin
    root RightUpLegDummy SpineDummy LeftUpLegDummy
    RightUpLegDummy RightUpLeg
    RightUpLeg RightLeg
    RightLeg RightFoot
    RightFoot RightToes
    SpineDummy Spine
    Spine Spine1
    Spine1 HEadDummy LeftShoulder1Dummy RightShoulderDummy
    HEadDummy HEad
    LeftShoulder1Dummy LeftShoulder1
    LeftShoulder1 LeftArm
    LeftArm LeftForeArm
    LeftForeArm LeftHand
    RightShoulderDummy RightShoulder
    RightShoulder RightArm
    RightArm RightForeArm
    RightForeArm RightHand
    LeftUpLegDummy LeftUpLeg
    LeftUpLeg LeftLeg
    LeftLeg LeftFoot
    LeftFoot LeftToes
  end

:SAMPLES-PER-SECOND 30
:FULLY-SPECIFIED
:DEGREES
187
root  4.0479 31.8309 7.80725 -142.949 74.4672 -153.486
RightUpLeg  -34.2203 -1.86367 6.46557
RightLeg  36.6625 -3.71984 -2.42702
RightFoot  -4.09225 0.000859252 0.401668
RightToes  -23.6365 -0.102645 -0.205398
Spine  5.60784 -1.22734 1.72126
Spine1  10.6449 -2.19672 1.93419
HEad  36.9711 14.9567 0.400334
LeftShoulder1  0 -2.42657e-020 -4.95415e-022
LeftArm  -24.5159 12.5807 -92.1284
LeftForeArm  24.0638 -35.7326 -7.28552
LeftHand  0.0711479 -4.51577 -2.17765
RightShoulder  0 2.42657e-020 1.07489e-018
RightArm  5.8136 8.81258 90.9423
RightForeArm  79.3384 58.676 16.7773
RightHand  -8.01355 20.2914 -42.3953
LeftUpLeg  0.493151 7.35922 15.7423
LeftLeg  24.5246 6.29168 2.38624
LeftFoot  -7.52298 -0.0611602 -0.930255
LeftToes  -40.6646 1.18758e-006 1.19596e-007
188
root  5.5418 31.4298 8.23189 -147.157 73.8036 -156.784
RightUpLeg  -33.4836 -1.93277 7.15797
RightLeg  41.8374 -4.33885 -3.42627
RightFoot  -8.91186 0.0512221 1.03492
RightToes  -21.725 -0.0912824 -0.190545
Spine  6.0658 -0.00923867 1.52025
Spine1  11.4644 0.907624 0.419335
HEad  39.2296 13.758 1.27699
LeftShoulder1  0 -2.42657e-020 -4.95415e-022
LeftArm  -24.6856 11.2475 -93.0761
LeftForeArm  23.8641 -34.9372 -7.07246
LeftHand  0.0263674 -4.54893 -1.03539
RightShoulder  0 2.42657e-020 1.07489e-018
RightArm  3.13041 17.3013 96.8067
RightForeArm  71.5697 32.8878 6.46483
RightHand  -6.5531 21.6965 -32.9052
LeftUpLeg  -2.81492 3.54359 16.1026
LeftLeg  35.9933 7.94638 4.99235
LeftFoot  -4.67388 -0.0303093 -0.742693
LeftToes  -46.4597 1.18758e-006 1.19596e-007
189
root  6.98153 30.989 8.564 -150.573 72.7626 -159.356
RightUpLeg  -32.257 -2.78898 7.99082
RightLeg  45.9325 -4.37693 -3.99894
RightFoot  -13.7297 0.156439 1.67701
RightToes  -19.7668 -0.0801623 -0.174944
Spine  6.81341 1.88271 1.46136
Spine1  12.6493 5.64253 -1.3978
HEad  41.8159 11.2573 2.70958
LeftShoulder1  0 -2.42657e-020 -4.95415e-022
LeftArm  -24.5468 8.67194 -94.5404
LeftForeArm  23.3872 -33.6008 -6.7239
LeftHand  0.00102789 -4.14299 -0.399048
RightShoulder  0 2.42657e-020 1.07489e-018
RightArm  -1.7909 23.4836 98.3464
RightForeArm  70.3998 22.5627 4.12372
RightHand  -3.64167 22.6071 -17.7084
LeftUpLeg  -8.40206 0.106506 15.8846
LeftLeg  50.7433 8.64447 9.16812
LeftFoot  -2.59933 -0.00832608 -0.367
LeftToes  -28.5806 1.18758e-006 1.19596e-007
190
root  8.37126 30.6811 8.77124 -153.055 71.8115 -160.837
RightUpLeg  -29.969 -3.66933 8.77233
RightLeg  48.1752 -4.25759 -4.21077
RightFoot  -17.37 0.257652 2.06423
RightToes  -19.038 -0.0761613 -0.169043
Spine  7.47191 3.58666 1.55325
Spine1  13.7417 9.66494 -2.15715
HEad  43.2741 8.00865 3.90207
LeftShoulder1  0 -2.42657e-020 -4.95415e-022
LeftArm  -25.0298 5.34121 -96.5728
LeftForeArm  23.2473 -30.5372 -5.96495
LeftHand  0.0176454 -3.81052 -0.90203
RightShoulder  0 2.42657e-020 1.07489e-018
RightArm  -16.3927 30.8978 98.4872
RightForeArm  78.4609 9.26547 1.55727
RightHand  0.5259 21.1567 3.18642
LeftUpLeg  -14.0881 -2.30442 15.035
LeftLeg  62.9581 5.64199 9.38132
LeftFoot  -1.10452 0.00171805 0.178229
LeftToes  -16.1649 1.18758e-006 1.19596e-007
191
root  9.68385 30.6137 8.85489 -156.005 70.7144 -163.261
RightUpLeg  -27.0047 -4.91236 9.02787
RightLeg  48.1385 -4.1595 -4.10993
RightFoot  -19.707 0.313062 2.17988
RightToes  -18.9422 -0.0756408 -0.168263
Spine  7.64719 4.37774 1.50213
Spine1  13.9099 11.1868 -1.8965
HEad  44.3208 4.38687 5.28691
LeftShoulder1  0 -2.42657e-020 -4.95415e-022
LeftArm  -25.3698 3.28669 -97.9239
LeftForeArm  22.8974 -28.7095 -5.53564
LeftHand  0.0488636 -3.68348 -1.89303
RightShoulder  0 2.42657e-020 1.07489e-018
RightArm  -22.0382 32.4442 93.9986
RightForeArm  73.884 1.5299 0.20057
RightHand  1.79835 16.4442 12.7731
LeftUpLeg  -19.6847 -4.44526 12.9801
LeftLeg  70.5993 0.711705 1.65316
LeftFoot  -2.53971 0.00718302 0.324034
LeftToes  -19.6533 1.18758e-006 1.19596e-007
192
root  10.9441 30.8513 8.88053 -158.88 69.2372 -166.315
RightUpLeg  -23.5477 -5.99562 9.00975
RightLeg  45.6087 -4.56475 -4.12073
RightFoot  -20.2724 0.335771 2.2556
RightToes  -19.0734 -0.0763535 -0.16933
Spine  7.35719 4.58112 1.15016
Spine1  13.1927 11.2989 -1.69742
HEad  45.0614 0.389774 7.5388
LeftShoulder1  0 -2.42657e-020 -4.95415e-022
LeftArm  -24.8533 2.45854 -97.9603
LeftForeArm  22.9786 -29.274 -5.66654
LeftHand  0.0680679 -4.17839 -2.23944
RightShoulder  0 2.42657e-020 1.07489e-018
RightArm  -23.161 27.8662 89.8014
RightForeArm  61.8689 2.28158 0.362306
RightHand  1.11077 10.7833 12.1055
LeftUpLeg  -25.4116 -6.0363 10.0777
LeftLeg  73.7303 -1.03186 -2.8591
LeftFoot  -2.78622 0.0130374 0.53608
LeftToes  -24.2015 1.18758e-006 1.19596e-007
193
root  12.225 31.3081 8.82374 -162.99 67.0993 -171.003
RightUpLeg  -19.5429 -8.40965 8.22491
RightLeg  41.3893 -4.57807 -3.55469
RightFoot  -19.2818 0.273434 1.98717
RightToes  -20.7199 -0.0855082 -0.182585
Spine  6.92977 4.21699 0.655169
Spine1  12.195 10.4461 -2.11128
HEad  45.6561 -2.86425 9.43818
LeftShoulder1  0 -2.42657e-020 -4.95415e-022
LeftArm  -24.4903 2.33152 -97.1121
LeftForeArm  23.788 -31.6586 -6.23664
LeftHand  0.0670655 -4.2844 -2.16624
RightShoulder  0 2.42657e-020 1.07489e-018
RightArm  -40.1515 20.8624 88.1243
RightForeArm  66.4189 4.82105 0.798173
RightHand  0.480241 12.0845 4.9073
LeftUpLeg  -30.5306 -7.13525 6.58452
LeftLeg  71.8637 -0.844938 -2.12687
LeftFoot  -4.87445 0.0238335 0.559942
LeftToes  -22.9355 1.18758e-006 1.19596e-007
194
root  13.5352 31.8741 8.76031 -166.336 64.8118 -174.858
RightUpLeg  -15.4063 -11.2433 7.34589
RightLeg  36.8323 -4.12821 -2.70833
RightFoot  -16.2119 0.149441 1.42683
RightToes  -25.0336 -0.11126 -0.21601
Spine  6.65972 3.52931 0.33432
Spine1  11.6283 8.89753 -2.16476
HEad  45.5099 -5.67449 10.577
LeftShoulder1  0 -2.42657e-020 -4.95415e-022
LeftArm  -24.2665 1.71881 -95.9098
LeftForeArm  24.4099 -34.2553 -6.8931
LeftHand  0.10183 -4.81496 -2.79566
RightShoulder  0 2.42657e-020 1.07489e-018
RightArm  -46.5694 15.2729 87.255
RightForeArm  67.9747 6.63554 1.11555
RightHand  -0.135107 17.2102 -0.522981
LeftUpLeg  -34.0119 -7.26693 3.56878
LeftLeg  65.3311 -0.257825 -0.490747
LeftFoot  -6.44653 0.0206086 0.365936
LeftToes  -21.1189 1.18758e-006 1.19596e-007
195
root  14.8662 32.4349 8.7169 -168.235 63.9535 -177.49
RightUpLeg  -11.9284 -11.702 6.76528
RightLeg  32.7934 -4.24964 -2.37387
RightFoot  -11.954 0.067449 1.02182
RightToes  -31.2878 -0.152888 -0.260816
Spine  6.2729 3.23104 -0.147896
Spine1  10.9389 8.09077 -2.37523
HEad  44.5736 -8.26451 11.8866
LeftShoulder1  0 -2.42657e-020 -4.95415e-022
LeftArm  -23.4151 0.603879 -93.864
LeftForeArm  25.0419 -36.8465 -7.59137
LeftHand  0.126636 -5.12373 -3.20402
RightShoulder  0 2.42657e-020 1.07489e-018
RightArm  -48.6923 9.05553 85.8938
RightForeArm  62.5746 9.05647 1.56135
RightHand  -0.747985 21.312 -3.60485
LeftUpLeg  -35.7945 -5.98349 1.11312
LeftLeg  54.8637 -0.446634 -0.563898
LeftFoot  -5.67597 0.0142385 0.287215
LeftToes  -20.6703 1.18758e-006 1.19596e-007
196
root  16.2647 32.9036 8.58526 -169.937 64.2221 -179.815
RightUpLeg  -8.35199 -11.4327 6.01959
RightLeg  28.821 -4.18343 -1.96743
RightFoot  -7.68752 0.0156285 0.610216
RightToes  -36.1414 -0.188416 -0.292304
Spine  5.79268 3.07694 -0.835008
Spine1  10.1794 7.46849 -2.87187
HEad  43.195 -10.1625 13.107
LeftShoulder1  0 -2.42657e-020 -4.95415e-022
LeftArm  -22.7702 -0.324393 -90.8908
LeftForeArm  25.8683 -39.9616 -8.4989
LeftHand  0.21614 -5.88705 -4.57692
RightShoulder  0 2.42657e-020 1.07489e-018
RightArm  -40.3253 1.18431 85.1064
RightForeArm  50.6696 14.8348 2.64757
RightHand  -0.497564 21.6163 -2.23651
LeftUpLeg  -35.7667 -5.4626 -0.714878
LeftLeg  41.8847 -1.8038 -1.42475
LeftFoot  -4.09431 0.0102966 0.28805
LeftToes  -21.7775 1.18758e-006 1.19596e-007
197
root  17.6927 33.1999 8.41646 -170.617 65.244 178.952
RightUpLeg  -5.00996 -10.6155 5.67004
RightLeg  25.2781 -4.16383 -1.65021
RightFoot  -3.99427 -0.00322906 0.284998
RightToes  -40.6196 -0.223452 -0.318596
Spine  5.25522 2.86729 -1.44709
Spine1  9.38183 6.6804 -3.3425
HEad  41.7082 -11.2046 14.1611
LeftShoulder1  0 -2.42657e-020 -4.95415e-022
LeftArm  -21.9542 -0.71339 -87.0942
LeftForeArm  28.1385 -44.1506 -9.86463
LeftHand  0.280311 -6.61805 -5.22071
RightShoulder  0 2.42657e-020 1.07489e-018
RightArm  -37.1418 -4.74147 84.4648
RightForeArm  46.9743 17.936 3.24738
RightHand  -0.218416 22.0752 -0.749896
LeftUpLeg  -35.3498 -7.94804 -0.0926783
LeftLeg  28.7135 -4.62841 -2.16153
LeftFoot  -3.33266 0.0095867 0.32953
LeftToes  -23.341 1.18758e-006 1.19596e-007
198
root  19.1541 33.2627 8.21526 -170.333 66.5425 178.595
RightUpLeg  -2.34808 -8.75114 5.93854
RightLeg  22.9462 -5.12158 -1.789
RightFoot  -1.527 -0.0037042 0.0996356
RightToes  -43.6254 -0.248073 -0.334672
Spine  4.62816 2.55357 -1.92988
Spine1  8.40896 5.72766 -3.81685
HEad  40.5495 -12.1914 14.9212
LeftShoulder1  0 -2.42657e-020 -4.95415e-022
LeftArm  -21.7625 0.113809 -83.0127
LeftForeArm  29.6614 -50.5711 -12.4077
LeftHand  0.485829 -6.54367 -8.86232
RightShoulder  0 2.42657e-020 1.07489e-018
RightArm  -34.1046 -9.31739 83.5716
RightForeArm  45.7911 19.1804 3.49341
RightHand  -0.10188 22.6355 -0.139065
LeftUpLeg  -36.1497 -13.6574 3.26343
LeftLeg  19.2528 -5.47993 -1.52661
LeftFoot  -4.55674 0.0168387 0.42322
LeftToes  -14.5753 1.18758e-006 1.19596e-007
199
root  20.7436 33.0515 7.98901 -170.4 68.86 178.976
RightUpLeg  0.132993 -5.12816 6.80587
RightLeg  23.5576 -7.73399 -2.78661
RightFoot  -0.759179 -0.00219764 0.0458821
RightToes  -45.2373 -0.261614 -0.342755
Spine  4.36942 2.5756 -2.39736
Spine1  8.07283 5.55529 -4.41374
HEad  39.4355 -14.1912 15.8912
LeftShoulder1  0 -2.42657e-020 -4.95415e-022
LeftArm  -19.828 1.8697 -78.3954
LeftForeArm  26.3315 -59.6145 -17.568
LeftHand  0.764429 -6.18095 -14.4732
RightShoulder  0 2.42657e-020 1.07489e-018
RightArm  -32.6136 -13.11 82.6675
RightForeArm  47.195 19.9534 3.64484
RightHand  0.0491406 23.3102 0.608405
LeftUpLeg  -36.1652 -15.3875 5.01953
LeftLeg  15.736 -8.52036 -1.81401
LeftFoot  -3.43995 0.0145977 0.486118
LeftToes  -22.6229 1.18758e-006 1.19596e-007
